<svg version="1.0" xmlns="http://www.w3.org/2000/svg"
 width="1200.000000pt" height="1200.000000pt" viewBox="0 0 1200.000000 1200.000000"
 preserveAspectRatio="xMidYMid meet">

<g transform="translate(0.000000,1200.000000) scale(0.100000,-0.100000)"
fill="#000000" stroke="none">
<path d="M5370 10065 c-233 -46 -427 -207 -516 -425 -40 -98 -54 -195 -54
-366 l0 -154 -960 0 -960 0 0 -240 0 -240 250 0 250 0 0 -25 c0 -68 411 -5508
421 -5564 42 -254 242 -498 489 -598 136 -54 89 -53 1710 -53 1621 0 1574 -1
1710 53 92 38 165 85 246 161 125 116 218 282 243 437 10 56 421 5496 421
5564 l0 25 250 0 250 0 0 240 0 240 -960 0 -960 0 0 155 c0 226 -31 356 -117
485 -107 162 -260 264 -455 304 -66 14 -161 16 -635 15 -414 -1 -575 -4 -623
-14z m1188 -477 c64 -16 134 -86 150 -150 7 -26 12 -108 12 -182 l0 -136 -720
0 -720 0 0 136 c0 74 5 156 12 182 15 60 87 135 144 150 58 15 1061 16 1122 0z
m1578 -1015 c-4 -38 -96 -1269 -206 -2738 -110 -1468 -202 -2686 -206 -2704
-14 -85 -85 -180 -167 -223 l-42 -23 -1515 0 -1515 0 -45 23 c-58 28 -115 84
-142 136 -20 38 -37 248 -224 2741 -111 1485 -205 2735 -209 2778 l-6 77 2141
0 2142 0 -6 -67z"/>
<path d="M4800 5760 l0 -1920 240 0 240 0 0 1920 0 1920 -240 0 -240 0 0
-1920z"/>
<path d="M5760 5760 l0 -1920 240 0 240 0 0 1920 0 1920 -240 0 -240 0 0
-1920z"/>
<path d="M6720 5760 l0 -1920 240 0 240 0 0 1920 0 1920 -240 0 -240 0 0
-1920z"/>
</g>
</svg>