<svg version="1.0" xmlns="http://www.w3.org/2000/svg"
 width="920.000000pt" height="920.000000pt" viewBox="0 0 920.000000 920.000000"
 preserveAspectRatio="xMidYMid meet">
<metadata>
Created by potrace 1.16, written by Peter Selinger 2001-2019
</metadata>
<g transform="translate(0.000000,920.000000) scale(0.100000,-0.100000)"
fill="#000000" stroke="none">
<path d="M7494 9190 c-189 -20 -393 -86 -582 -189 -239 -130 -85 19 -3204
-3099 -2004 -2003 -2895 -2900 -2912 -2932 -14 -26 -48 -127 -76 -226 -60
-209 -175 -601 -265 -899 -35 -115 -82 -271 -104 -345 -22 -74 -74 -247 -116
-385 -249 -820 -237 -776 -232 -838 13 -154 134 -270 282 -271 62 0 110 14
555 159 182 59 297 96 955 307 138 44 331 106 430 138 99 32 283 91 410 130
126 40 248 81 270 92 24 12 164 143 345 322 168 166 724 716 1235 1221 512
506 1169 1156 1460 1445 292 289 791 784 1110 1100 1239 1229 1629 1618 1700
1700 226 259 344 473 412 747 24 95 27 127 27 273 0 136 -4 181 -22 255 -34
135 -60 211 -110 310 -87 175 -188 314 -355 484 -265 271 -520 419 -827 480
-116 24 -277 32 -386 21z m274 -596 c42 -9 111 -30 151 -47 226 -93 510 -368
620 -601 61 -128 75 -186 75 -311 0 -94 -4 -122 -28 -190 -57 -165 -156 -321
-300 -472 -38 -40 -72 -73 -75 -73 -4 0 -18 26 -30 58 -31 76 -134 270 -188
355 -236 369 -609 699 -1003 889 l-105 50 58 55 c114 105 270 201 412 252 142
51 279 63 413 35z m-1221 -838 c353 -119 719 -406 943 -740 96 -143 221 -428
245 -557 6 -34 1 -39 -497 -534 -277 -276 -980 -973 -1563 -1550 -1429 -1414
-1937 -1917 -2341 -2318 l-341 -339 -37 79 c-232 488 -621 884 -1121 1143 -49
26 -110 54 -134 64 l-45 17 2385 2385 c1311 1311 2389 2384 2395 2384 5 0 55
-15 111 -34z m-5085 -5286 c225 -97 426 -236 613 -424 129 -130 210 -235 290
-375 55 -95 143 -293 147 -331 3 -22 -38 -36 -902 -325 -498 -167 -907 -299
-908 -294 -2 5 28 112 68 237 161 512 245 776 295 932 29 91 86 269 125 395
39 127 73 235 75 242 5 16 77 -5 197 -57z"/>
</g>
</svg>